<svg width="236" height="172" viewBox="0 0 236 172" fill="none" xmlns="http://www.w3.org/2000/svg">
<g clip-path="url(#clip0_3_2)">
<g filter="url(#filter0_d_3_2)">
<path d="M86.2031 17C87.8325 17 89.4495 17.3909 90.8975 18.1533L152.257 50.0674C154.217 51.0868 154.979 53.502 153.96 55.4619C152.941 57.4218 150.525 58.1844 148.565 57.165L87.2061 25.251C87.196 25.2457 87.1858 25.2407 87.1758 25.2354C86.9338 25.1068 86.6459 25.0228 86.3369 25.0039L86.2031 25C85.8436 25 85.5071 25.0885 85.2305 25.2354C85.2204 25.2407 85.2103 25.2457 85.2002 25.251L23.8457 57.1611L23.8467 57.1621C23.5358 57.3246 23.3187 57.5372 23.1855 57.7461C23.0545 57.9519 23.0011 58.1571 23 58.3428V121.855L23.0107 121.998C23.0323 122.144 23.0873 122.297 23.1855 122.451C23.3187 122.66 23.5355 122.874 23.8467 123.036L85.2002 154.947L85.2305 154.963C85.5071 155.11 85.8436 155.198 86.2031 155.198L86.3369 155.194C86.646 155.175 86.9338 155.091 87.1758 154.963C87.1858 154.958 87.196 154.952 87.2061 154.947L148.565 123.033C150.525 122.014 152.941 122.776 153.96 124.736C154.979 126.696 154.217 129.112 152.257 130.131L90.8975 162.045L90.8965 162.044C89.5398 162.758 88.0353 163.147 86.5107 163.193L86.2031 163.198C84.5737 163.198 82.9568 162.806 81.5088 162.044V162.045L20.1494 130.131L20.1426 130.127C18.6448 129.344 17.3559 128.19 16.4375 126.748C15.5171 125.303 15.0101 123.63 15 121.902V58.2959C15.0101 56.5677 15.5169 54.8948 16.4375 53.4492C17.3559 52.0071 18.6447 50.8527 20.1426 50.0703L20.1494 50.0674L81.5088 18.1533C82.9567 17.3909 84.5738 17 86.2031 17ZM102.803 56.0986C105.111 56.0986 107.616 56.3185 110.373 56.7559C113.13 57.1951 116.067 57.8518 119.3 58.7275L121.953 64.2393L129.703 64.7051V124.099L94.1641 121.3C92.86 122.036 91.8141 122.593 90.5645 122.975C89.315 123.356 88.1043 123.547 86.9365 123.547C85.7414 123.547 84.4528 123.356 83.0811 122.975C81.7093 122.593 80.2408 122.035 78.6924 121.3L42.7031 124.098V65.1709L50.2998 64.7041L53.2783 58.7275C56.4797 57.8518 59.5128 57.1942 62.375 56.7559C65.2371 56.3184 67.9165 56.0986 70.4131 56.0986C74.7543 56.0986 78.1511 56.686 80.6064 57.8584C83.0625 59.0317 84.9911 61.0027 86.4023 63.7725C87.6792 61.0589 89.6006 59.1018 92.1816 57.9004C94.7626 56.6999 98.2929 56.0986 102.803 56.0986ZM124.431 69.707V118.375L91.9482 116.256C90.3726 117.641 88.5141 118.333 86.0693 118.333C83.6519 118.333 81.2858 117.641 79.7383 116.256L46.2188 118.375V69.707L48.3232 66.6973L44.4609 66.9512V121.852L79.2188 119.181C80.5762 119.944 82.0093 120.516 83.2588 120.897C84.5084 121.279 85.7042 121.471 86.8721 121.471C87.959 121.471 89.044 121.279 90.1846 120.897C91.3252 120.515 92.4506 119.944 93.6738 119.181L127.945 121.852V66.5703L122.666 66.2734L124.431 69.707ZM70.7686 106.293C68.5146 106.293 66.0911 106.456 63.498 106.781C60.9047 107.106 58.1415 107.594 55.209 108.244L51.3047 116.256L81.0723 113.797C81.9414 114.957 83.3949 115.776 85.4326 116.256C85.053 112.695 83.7282 110.145 81.4609 108.604C79.1928 107.063 75.629 106.293 70.7686 106.293ZM101.822 106.293C92.2394 106.293 87.4482 109.615 87.4482 116.256C89.4501 115.916 90.9788 115.083 92.0342 113.754L121.899 116.256L117.989 108.37C114.84 107.664 111.914 107.141 109.213 106.802C106.512 106.462 104.048 106.293 101.822 106.293ZM49.7334 70.1318V114.349L53.249 106.251V62.5L49.7334 70.1318ZM119.157 106.251L122.673 114.137V70.5977L119.157 62.6699V106.251ZM101.744 58.1758C96.722 58.1758 92.7198 59.2509 90.1406 61.3984C88.0774 63.0945 86.6427 65.9911 86.6426 70.0889V109.643C89.2789 107.579 90.7337 106.16 92.8516 105.382C94.9686 104.606 98.1083 104.216 101.828 104.216C104.297 104.216 106.412 104.365 108.896 104.661C111.381 104.958 113.885 105.418 115.643 106.039V60.2109C113.885 59.5323 110.526 59.0234 108.001 58.6846C105.477 58.3458 103.807 58.1758 101.744 58.1758ZM71.252 58.1758C68.8046 58.1758 66.3264 58.3531 63.7578 58.7061C61.1883 59.0599 57.6423 59.59 55.8848 60.2959V105.954C57.6423 105.361 61.6311 104.923 64.0645 104.64C66.4969 104.357 68.3693 104.215 70.082 104.215C77.0683 104.215 82.2484 105.969 84.8848 109.473V70.0039C84.8848 66.0476 84.0007 63.0875 81.6367 61.1221C79.271 59.1585 76.0096 58.1758 71.252 58.1758Z" fill="#7772F1"/>
</g>
</g>
<path d="M179.514 77.7578C180.216 77.7578 180.749 77.9507 181.111 78.3359C181.497 78.7213 181.689 79.2766 181.689 80.002V98.3623H183.05C183.707 98.3624 184.206 98.5436 184.546 98.9062C184.908 99.2462 185.09 99.7452 185.09 100.402V106.012C185.09 107.326 184.455 107.984 183.186 107.984C182.551 107.984 182.064 107.814 181.724 107.474C181.384 107.134 181.214 106.646 181.214 106.012V102H163.159C162.411 102 161.834 101.807 161.426 101.422C161.041 101.014 160.848 100.436 160.848 99.6885V80.002C160.848 79.2766 161.029 78.7213 161.392 78.3359C161.777 77.9507 162.321 77.7578 163.023 77.7578C163.726 77.7578 164.258 77.9508 164.621 78.3359C165.006 78.7213 165.199 79.2766 165.199 80.002V98.3623H177.338V80.002C177.338 79.2766 177.519 78.7213 177.882 78.3359C178.267 77.9507 178.811 77.7578 179.514 77.7578ZM199.184 77.6904C201.518 77.6905 203.547 78.1998 205.27 79.2197C206.992 80.217 208.329 81.6339 209.281 83.4697C210.233 85.3057 210.709 87.4706 210.709 89.9639C210.709 91.8452 210.438 93.5458 209.894 95.0645C209.35 96.583 208.567 97.8857 207.547 98.9736C206.55 100.062 205.337 100.901 203.909 101.49C202.504 102.057 200.929 102.34 199.184 102.34C196.872 102.34 194.843 101.83 193.098 100.81C191.375 99.7896 190.037 98.3623 189.085 96.5264C188.133 94.6677 187.657 92.4914 187.657 89.998C187.657 88.1167 187.93 86.4276 188.474 84.9316C189.018 83.4132 189.788 82.1209 190.785 81.0557C191.805 79.9678 193.018 79.1409 194.423 78.5742C195.851 77.9849 197.438 77.6904 199.184 77.6904ZM149.072 78.0303C151.701 78.0304 153.73 78.6874 155.158 80.002C156.586 81.3166 157.3 83.1526 157.3 85.5098C157.3 87.8669 156.586 89.7144 155.158 91.0518C153.73 92.3663 151.701 93.0243 149.072 93.0244H143.02V100.028C143.019 100.731 142.838 101.286 142.476 101.694C142.113 102.079 141.569 102.272 140.844 102.272C140.141 102.272 139.597 102.08 139.212 101.694C138.849 101.286 138.668 100.731 138.668 100.028V80.2402C138.668 79.5149 138.861 78.9711 139.246 78.6084C139.631 78.2231 140.175 78.0303 140.878 78.0303H149.072ZM233.562 77.7578C233.925 77.7578 234.231 77.8374 234.48 77.9961C234.752 78.1548 234.957 78.3926 235.093 78.71C235.251 79.0045 235.331 79.3558 235.331 79.7637V100.164C235.331 100.844 235.16 101.365 234.82 101.728C234.48 102.09 233.982 102.272 233.324 102.272C232.667 102.272 232.158 102.09 231.795 101.728C231.455 101.365 231.284 100.844 231.284 100.164V85.0625L219.146 100.98C218.784 101.434 218.455 101.762 218.16 101.966C217.888 102.17 217.492 102.272 216.971 102.272C216.676 102.272 216.415 102.226 216.188 102.136C215.962 102.045 215.769 101.909 215.61 101.728C215.452 101.524 215.327 101.285 215.236 101.014C215.168 100.742 215.135 100.424 215.135 100.062V79.832C215.135 79.1747 215.305 78.6644 215.645 78.3018C216.007 77.9391 216.518 77.7578 217.175 77.7578C217.832 77.7578 218.331 77.9391 218.671 78.3018C219.011 78.6644 219.181 79.1747 219.181 79.832V94.8906L231.318 79.0156C231.658 78.5624 231.987 78.2458 232.305 78.0645C232.622 77.8605 233.041 77.7578 233.562 77.7578ZM199.184 81.4297C197.733 81.4297 196.486 81.7702 195.443 82.4502C194.401 83.1075 193.596 84.082 193.029 85.374C192.485 86.6434 192.213 88.1847 192.213 89.998C192.213 92.6953 192.825 94.8036 194.049 96.3223C195.273 97.8409 196.985 98.5996 199.184 98.5996C200.657 98.5996 201.903 98.2599 202.923 97.5801C203.966 96.9001 204.76 95.9141 205.304 94.6221C205.87 93.3301 206.153 91.7886 206.153 89.998C206.153 87.278 205.541 85.1698 204.317 83.6738C203.116 82.1779 201.405 81.4298 199.184 81.4297ZM143.02 89.5898H148.392C149.933 89.5898 151.1 89.2501 151.894 88.5703C152.687 87.8676 153.084 86.8471 153.084 85.5098C153.084 84.1726 152.687 83.1643 151.894 82.4844C151.1 81.8044 149.933 81.4639 148.392 81.4639H143.02V89.5898Z" fill="white"/>
<defs>
<filter id="filter0_d_3_2" x="11" y="17" width="147.412" height="154.198" filterUnits="userSpaceOnUse" color-interpolation-filters="sRGB">
<feFlood flood-opacity="0" result="BackgroundImageFix"/>
<feColorMatrix in="SourceAlpha" type="matrix" values="0 0 0 0 0 0 0 0 0 0 0 0 0 0 0 0 0 0 127 0" result="hardAlpha"/>
<feOffset dy="4"/>
<feGaussianBlur stdDeviation="2"/>
<feComposite in2="hardAlpha" operator="out"/>
<feColorMatrix type="matrix" values="0 0 0 0 0 0 0 0 0 0 0 0 0 0 0 0 0 0 0.25 0"/>
<feBlend mode="normal" in2="BackgroundImageFix" result="effect1_dropShadow_3_2"/>
<feBlend mode="normal" in="SourceGraphic" in2="effect1_dropShadow_3_2" result="shape"/>
</filter>
<clipPath id="clip0_3_2">
<rect width="187" height="172" fill="white"/>
</clipPath>
</defs>
</svg>
